<svg xmlns="http://www.w3.org/2000/svg" width="20" height="20" fill="none"><path fill="#fff" d="M14.722 6.333H5.278a.833.833 0 0 0-.834.834v5c0 .46.374.833.834.833h9.444c.46 0 .834-.373.834-.833v-5a.833.833 0 0 0-.834-.834Zm-.278 5.556H5.556V7.444h8.888v4.445Zm4.445-3.333H20v-3.89C20 3.747 19.254 3 18.333 3H1.667C.747 3 0 3.746 0 4.667v3.889h1.111a1.111 1.111 0 1 1 0 2.222H0v3.889c0 .92.746 1.666 1.667 1.666h16.666c.92 0 1.667-.746 1.667-1.666v-3.89h-1.111a1.111 1.111 0 1 1 0-2.221Zm0 3.333v2.778c0 .306-.25.555-.556.555H1.667a.556.556 0 0 1-.556-.555v-2.778a2.225 2.225 0 0 0 2.222-2.222 2.225 2.225 0 0 0-2.222-2.223V4.667c0-.307.25-.556.556-.556h16.666c.307 0 .556.25.556.556v2.777a2.225 2.225 0 0 0-2.222 2.223c0 1.225.996 2.222 2.222 2.222Z"/></svg>